<svg xmlns="http://www.w3.org/2000/svg" width="512" height="512" viewBox="0 0 512 512" style=""
  data-bbox="26.859 108.682 475.638 299.638">
  <rect data-fl-background="" x="0" y="0" width="512" height="512" fill="transparent"></rect>
  <g transform="matrix(1.379758358001709, 0, 0, 1.379758358001709, -52.596710205078125, -17.952299118041992)"><svg
      xmlns="http://www.w3.org/2000/svg" viewBox="0 0 447.33 298.22" width="447.33" height="298.22">
      <path class="cls-1"
        d="m154.84 192.22c20.89 6.07 43.93-3.37 61.26-16.52-18.21-15.78-45.77-15.03-63.08 2.27l-14.89 14.89c18.1 18.1 47.44 18.1 65.54 0 37.32-37.32-6.95 13.87-48.83-.65Z"
        fill="#16db65" stroke-width="0px"></path>
      <path class="cls-1"
        d="m239.21 157.32c18.1-18.1 18.1-47.44 0-65.54l-14.89 14.89c-17.3 17.3-18.05 44.87-2.27 63.07 13.15-17.33 22.57-40.44 16.52-61.26 14.33 41.35-35.72 85.19.64 48.83Z"
        fill="#16db65" stroke-width="0px"></path>
      <path class="cls-1"
        d="m294.3 176.47c-17.3-17.3-44.87-18.05-63.08-2.27 17.15 13.01 40.23 22.63 61.26 16.52-41.75 14.47-85.95-36.47-48.83.65 18.1 18.1 47.44 18.1 65.54 0l-14.89-14.89Z"
        fill="#16db65" stroke-width="0px"></path>
    </svg></g>
  <path text="Green bank" fill="#ffffff" space="preserve" text-anchor="middle" offset="0.5" font-scale="contain"
    font-size="48" font-family="Baloo Bhai 2"
    transform="matrix(1.944488763809204, 0, 0, 1.944488763809204, 264.1687927246094, 362.9449462890625)"
    data-fl-textpath="" font-style="normal" font-weight="700"
    d="M-94.822-14.4L-94.822-4.42Q-94.822-3.02 -95.352-2.35Q-95.882-1.68 -97.032-1.01L-97.032-1.01Q-97.702-0.62 -98.662-0.29Q-99.622 0.05 -100.802 0.29Q-101.972 0.53 -103.252 0.67Q-104.522 0.82 -105.772 0.82L-105.772 0.82Q-109.222 0.82 -112.172-0.07Q-115.132-0.96 -117.332-2.83Q-119.542-4.7 -120.792-7.58Q-122.042-10.46 -122.042-14.5L-122.042-14.5Q-122.042-18.29 -120.772-21.19Q-119.492-24.1 -117.312-26.04Q-115.132-27.98 -112.172-28.97Q-109.222-29.95 -105.812-29.95L-105.812-29.95Q-101.352-29.95 -98.712-28.56Q-96.072-27.17 -96.072-25.01L-96.072-25.01Q-96.072-23.9 -96.652-23.06Q-97.222-22.22 -97.992-21.74L-97.992-21.74Q-99.192-22.51 -100.992-23.18Q-102.792-23.86 -105.242-23.86L-105.242-23.86Q-107.252-23.86 -108.912-23.21Q-110.572-22.56 -111.772-21.36Q-112.972-20.16 -113.642-18.43Q-114.312-16.7 -114.312-14.54L-114.312-14.54Q-114.312-12.19 -113.662-10.44Q-113.012-8.69 -111.862-7.54Q-110.712-6.38 -109.102-5.81Q-107.492-5.23 -105.622-5.23L-105.622-5.23Q-104.472-5.23 -103.532-5.47Q-102.602-5.71 -102.072-5.95L-102.072-5.95L-102.072-11.38L-107.592-11.38Q-107.882-11.86 -108.122-12.62Q-108.362-13.39 -108.362-14.26L-108.362-14.26Q-108.362-15.79 -107.642-16.51Q-106.922-17.23 -105.772-17.23L-105.772-17.23L-97.702-17.23Q-96.362-17.23 -95.592-16.49Q-94.822-15.74 -94.822-14.4L-94.822-14.4ZM-82.25-16.75L-82.25-0.05Q-82.73 0.1 -83.59 0.22Q-84.46 0.34 -85.51 0.34L-85.51 0.34Q-87.67 0.34 -88.63-0.36Q-89.59-1.06 -89.59-3.07L-89.59-3.07L-89.59-17.71Q-89.59-19.06 -88.92-20.02Q-88.25-20.98 -87.05-21.7L-87.05-21.7Q-85.46-22.66 -83.23-23.21Q-81-23.76 -78.55-23.76L-78.55-23.76Q-73.56-23.76 -73.56-20.4L-73.56-20.4Q-73.56-19.58 -73.8-18.91Q-74.04-18.24 -74.33-17.76L-74.33-17.76Q-75.43-18 -77.02-18L-77.02-18Q-78.41-18 -79.8-17.66Q-81.19-17.33 -82.25-16.75L-82.25-16.75ZM-51.43-10.37L-63.91-8.5Q-63.24-6.48 -61.56-5.64Q-59.88-4.8 -57.67-4.8L-57.67-4.8Q-55.66-4.8 -53.88-5.35Q-52.1-5.9 -51-6.58L-51-6.58Q-50.28-6.1 -49.8-5.33Q-49.32-4.56 -49.32-3.65L-49.32-3.65Q-49.32-2.54 -49.99-1.73Q-50.66-0.91 -51.84-0.36Q-53.02 0.19 -54.62 0.46Q-56.23 0.72 -58.15 0.72L-58.15 0.72Q-60.98 0.72 -63.38-0.07Q-65.78-0.86 -67.51-2.42Q-69.24-3.98 -70.22-6.34Q-71.21-8.69 -71.21-11.86L-71.21-11.86Q-71.21-14.93 -70.22-17.18Q-69.24-19.44 -67.58-20.93Q-65.93-22.42 -63.79-23.11Q-61.66-23.81 -59.4-23.81L-59.4-23.81Q-56.95-23.81 -54.91-23.06Q-52.87-22.32 -51.41-20.98Q-49.94-19.63 -49.13-17.76Q-48.31-15.89 -48.31-13.68L-48.31-13.68Q-48.31-12.14 -49.13-11.38Q-49.94-10.61 -51.43-10.37L-51.43-10.37ZM-59.35-18.38L-59.35-18.38Q-61.42-18.38 -62.78-17.11Q-64.15-15.84 -64.39-13.44L-64.39-13.44L-55.22-14.93Q-55.32-16.18 -56.33-17.28Q-57.34-18.38 -59.35-18.38ZM-25.366-10.37L-37.846-8.5Q-37.176-6.48 -35.496-5.64Q-33.816-4.8 -31.606-4.8L-31.606-4.8Q-29.596-4.8 -27.816-5.35Q-26.036-5.9 -24.936-6.58L-24.936-6.58Q-24.216-6.1 -23.736-5.33Q-23.256-4.56 -23.256-3.65L-23.256-3.65Q-23.256-2.54 -23.926-1.73Q-24.596-0.91 -25.776-0.36Q-26.956 0.19 -28.556 0.46Q-30.166 0.72 -32.086 0.72L-32.086 0.72Q-34.916 0.72 -37.316-0.07Q-39.716-0.86 -41.446-2.42Q-43.176-3.98 -44.156-6.34Q-45.146-8.69 -45.146-11.86L-45.146-11.86Q-45.146-14.93 -44.156-17.18Q-43.176-19.44 -41.516-20.93Q-39.866-22.42 -37.726-23.11Q-35.596-23.81 -33.336-23.81L-33.336-23.81Q-30.886-23.81 -28.846-23.06Q-26.806-22.32 -25.346-20.98Q-23.876-19.63 -23.066-17.76Q-22.246-15.89 -22.246-13.68L-22.246-13.68Q-22.246-12.14 -23.066-11.38Q-23.876-10.61 -25.366-10.37L-25.366-10.37ZM-33.286-18.38L-33.286-18.38Q-35.356-18.38 -36.716-17.11Q-38.086-15.84 -38.326-13.44L-38.326-13.44L-29.156-14.93Q-29.256-16.18 -30.266-17.28Q-31.276-18.38 -33.286-18.38ZM-3.092-14.74L-3.092-14.74Q-3.092-16.42 -4.102-17.23Q-5.112-18.05 -6.792-18.05L-6.792-18.05Q-7.942-18.05 -8.902-17.76Q-9.862-17.47 -10.682-17.04L-10.682-17.04L-10.682-0.05Q-11.162 0.1 -12.022 0.22Q-12.892 0.34 -13.942 0.34L-13.942 0.34Q-16.102 0.34 -17.062-0.36Q-18.022-1.06 -18.022-3.07L-18.022-3.07L-18.022-17.9Q-18.022-19.15 -17.492-19.92Q-16.972-20.69 -16.012-21.36L-16.012-21.36Q-14.472-22.46 -12.052-23.14Q-9.622-23.81 -6.692-23.81L-6.692-23.81Q-1.462-23.81  1.388-21.5Q 4.248-19.2  4.248-14.93L 4.248-14.93L 4.248-0.05Q 3.718 0.1  2.858 0.22Q 1.988 0.34  0.938 0.34L 0.938 0.34Q-1.222 0.34 -2.162-0.36Q-3.092-1.06 -3.092-3.07L-3.092-3.07L-3.092-14.74ZM 31.654-23.81L 31.654-23.81Q 34.004-23.81  36.074-23.04Q 38.134-22.27  39.644-20.74Q 41.164-19.2  42.024-16.92Q 42.884-14.64  42.884-11.62L 42.884-11.62Q 42.884-8.59  41.974-6.29Q 41.064-3.98  39.404-2.42Q 37.754-0.86  35.424-0.07Q 33.094 0.72  30.214 0.72L 30.214 0.72Q 27.194 0.72  25.034 0Q 22.874-0.72  21.434-1.73L 21.434-1.73Q 19.364-3.12  19.364-5.38L 19.364-5.38L 19.364-31.25Q 19.894-31.39  20.764-31.54Q 21.624-31.68  22.684-31.68L 22.684-31.68Q 24.844-31.68  25.774-30.96Q 26.714-30.24  26.714-28.22L 26.714-28.22L 26.714-22.75Q 27.674-23.18  28.924-23.5Q 30.164-23.81  31.654-23.81ZM 30.314-18.05L 30.314-18.05Q 29.204-18.05  28.324-17.74Q 27.434-17.42  26.664-16.94L 26.664-16.94L 26.664-5.95Q 27.244-5.57  28.104-5.33Q 28.964-5.09  30.124-5.09L 30.124-5.09Q 32.524-5.09  33.934-6.72Q 35.354-8.35  35.354-11.62L 35.354-11.62Q 35.354-14.98  33.984-16.51Q 32.614-18.05  30.314-18.05ZM 56.81-4.66L 56.81-4.66Q 57.86-4.66  58.9-4.87Q 59.93-5.09  60.46-5.42L 60.46-5.42L 60.46-9.84L 56.52-9.5Q 54.98-9.36  54.05-8.81Q 53.11-8.26  53.11-7.15L 53.11-7.15Q 53.11-6  53.98-5.33Q 54.84-4.66  56.81-4.66ZM 56.52-23.81L 56.52-23.81Q 59.02-23.81  61.06-23.3Q 63.1-22.8  64.54-21.74Q 65.98-20.69  66.77-19.06Q 67.56-17.42  67.56-15.22L 67.56-15.22L 67.56-4.37Q 67.56-3.12  66.91-2.38Q 66.26-1.63  65.35-1.1L 65.35-1.1Q 63.86-0.19  61.7 0.29Q 59.54 0.77  56.81 0.77L 56.81 0.77Q 51.86 0.77  48.94-1.13Q 46.01-3.02  46.01-6.91L 46.01-6.91Q 46.01-10.22  47.98-11.95Q 49.94-13.68  54.02-14.11L 54.02-14.11L 60.41-14.78L 60.41-15.31Q 60.41-16.85  59.16-17.57Q 57.91-18.29  55.56-18.29L 55.56-18.29Q 53.74-18.29  51.98-17.86Q 50.23-17.42  48.84-16.85L 48.84-16.85Q 48.26-17.23  47.86-18.02Q 47.45-18.82  47.45-19.73L 47.45-19.73Q 47.45-21.84  49.66-22.75L 49.66-22.75Q 51.05-23.28  52.9-23.54Q 54.74-23.81  56.52-23.81ZM 87.82-14.74L 87.82-14.74Q 87.82-16.42  86.81-17.23Q 85.8-18.05  84.12-18.05L 84.12-18.05Q 82.97-18.05  82.01-17.76Q 81.05-17.47  80.23-17.04L 80.23-17.04L 80.23-0.05Q 79.75 0.1  78.89 0.22Q 78.02 0.34  76.97 0.34L 76.97 0.34Q 74.81 0.34  73.85-0.36Q 72.89-1.06  72.89-3.07L 72.89-3.07L 72.89-17.9Q 72.89-19.15  73.42-19.92Q 73.94-20.69  74.9-21.36L 74.9-21.36Q 76.44-22.46  78.86-23.14Q 81.29-23.81  84.22-23.81L 84.22-23.81Q 89.45-23.81  92.3-21.5Q 95.16-19.2  95.16-14.93L 95.16-14.93L 95.16-0.05Q 94.63 0.1  93.77 0.22Q 92.9 0.34  91.85 0.34L 91.85 0.34Q 89.69 0.34  88.75-0.36Q 87.82-1.06  87.82-3.07L 87.82-3.07L 87.82-14.74ZM 118.006-15.07L 114.266-11.86L 122.566-3.79Q 122.326-1.78  121.346-0.7Q 120.356 0.38  118.536 0.38L 118.536 0.38Q 117.146 0.38  116.086-0.29Q 115.036-0.96  113.736-2.5L 113.736-2.5L 108.026-9.26L 108.026-0.05Q 107.546 0.1  106.676 0.22Q 105.816 0.34  104.756 0.34L 104.756 0.34Q 102.596 0.34  101.636-0.36Q 100.676-1.06  100.676-3.07L 100.676-3.07L 100.676-31.25Q 101.206-31.39  102.076-31.54Q 102.936-31.68  103.996-31.68L 103.996-31.68Q 106.156-31.68  107.086-30.96Q 108.026-30.24  108.026-28.22L 108.026-28.22L 108.026-14.64L 116.716-23.47Q 118.966-23.47  120.316-22.46Q 121.656-21.46  121.656-19.97L 121.656-19.97Q 121.656-18.67  120.766-17.69Q 119.876-16.7  118.006-15.07L 118.006-15.07Z">
  </path>
  <path text="Together for a green economy" fill="#16db65" space="preserve" text-anchor="middle" offset="0.5"
    font-scale="contain" font-size="48" font-family="Baloo Bhai 2"
    transform="matrix(0.5508158802986145, 0, 0, 0.5508158802986145, 256.4098205566406, 402.9765625)" data-fl-textpath=""
    font-style="normal" font-weight="400"
    d="M-290.876-25.87L-298.796-25.87L-298.796-0.1Q-299.036 0 -299.546 0.12Q-300.046 0.24 -300.576 0.24L-300.576 0.24Q-302.686 0.24 -302.686-1.54L-302.686-1.54L-302.686-25.87L-311.666-25.87Q-311.806-26.11 -311.956-26.52Q-312.096-26.93 -312.096-27.46L-312.096-27.46Q-312.096-28.27 -311.716-28.73Q-311.326-29.18 -310.606-29.18L-310.606-29.18L-289.826-29.18Q-289.676-28.94 -289.536-28.54Q-289.396-28.13 -289.396-27.65L-289.396-27.65Q-289.396-26.83 -289.776-26.35Q-290.156-25.87 -290.876-25.87L-290.876-25.87ZM-264.002-11.09L-264.002-11.09Q-264.002-8.4 -264.772-6.24Q-265.532-4.08 -266.952-2.54Q-268.372-1.01 -270.382-0.19Q-272.402 0.62 -274.892 0.62L-274.892 0.62Q-277.392 0.62 -279.412-0.19Q-281.422-1.01 -282.862-2.54Q-284.302-4.08 -285.072-6.24Q-285.842-8.4 -285.842-11.09L-285.842-11.09Q-285.842-13.78 -285.052-15.94Q-284.252-18.1 -282.812-19.63Q-281.372-21.17 -279.362-21.98Q-277.342-22.8 -274.892-22.8L-274.892-22.8Q-272.452-22.8 -270.432-21.98Q-268.412-21.17 -267.002-19.63Q-265.582-18.1 -264.792-15.94Q-264.002-13.78 -264.002-11.09ZM-274.892-19.63L-274.892-19.63Q-278.162-19.63 -280.032-17.38Q-281.902-15.12 -281.902-11.09L-281.902-11.09Q-281.902-7.01 -280.052-4.78Q-278.212-2.54 -274.892-2.54L-274.892-2.54Q-271.582-2.54 -269.762-4.8Q-267.932-7.06 -267.932-11.09L-267.932-11.09Q-267.932-15.12 -269.782-17.38Q-271.632-19.63 -274.892-19.63ZM-243.218 0.72L-243.218-2.3Q-244.028-1.63 -245.448-1.15Q-246.868-0.67 -248.828-0.67L-248.828-0.67Q-250.948-0.67 -252.818-1.27Q-254.688-1.87 -256.108-3.19Q-257.518-4.51 -258.358-6.62Q-259.198-8.74 -259.198-11.76L-259.198-11.76Q-259.198-14.5 -258.388-16.56Q-257.568-18.62 -256.108-20.02Q-254.638-21.41 -252.628-22.1Q-250.608-22.8 -248.158-22.8L-248.158-22.8Q-245.948-22.8 -244.108-22.25Q-242.258-21.7 -241.008-20.88L-241.008-20.88Q-240.288-20.4 -239.828-19.8Q-239.378-19.2 -239.378-18.34L-239.378-18.34L-239.378 0.96Q-239.378 3.36 -240.168 5.02Q-240.958 6.67 -242.378 7.7Q-243.788 8.74 -245.708 9.22Q-247.628 9.7 -249.838 9.7L-249.838 9.7Q-252.288 9.7 -253.988 9.19Q-255.698 8.69 -256.318 8.3L-256.318 8.3Q-257.758 7.49 -257.758 6.24L-257.758 6.24Q-257.758 5.57 -257.448 5.11Q-257.138 4.66 -256.658 4.42L-256.658 4.42Q-255.648 5.18 -253.828 5.83Q-251.998 6.48 -249.838 6.48L-249.838 6.48Q-246.628 6.48 -244.918 5.11Q-243.218 3.74 -243.218 0.72L-243.218 0.72ZM-248.398-3.84L-248.398-3.84Q-246.478-3.84 -245.258-4.44Q-244.028-5.04 -243.218-5.81L-243.218-5.81L-243.218-18.29Q-244.028-18.82 -245.258-19.22Q-246.478-19.63 -248.158-19.63L-248.158-19.63Q-251.428-19.63 -253.368-17.66Q-255.308-15.7 -255.308-11.81L-255.308-11.81Q-255.308-9.65 -254.788-8.14Q-254.258-6.62 -253.318-5.66Q-252.388-4.7 -251.108-4.27Q-249.838-3.84 -248.398-3.84ZM-214.752-10.9L-229.532-8.83Q-228.242-2.54 -221.282-2.54L-221.282-2.54Q-219.262-2.54 -217.632-3.22Q-216.002-3.89 -215.042-4.66L-215.042-4.66Q-213.892-3.98 -213.892-2.83L-213.892-2.83Q-213.892-2.16 -214.492-1.54Q-215.092-0.91 -216.122-0.43Q-217.152 0.05 -218.522 0.34Q-219.892 0.62 -221.472 0.62L-221.472 0.62Q-227.042 0.62 -230.282-2.4Q-233.522-5.42 -233.522-11.23L-233.522-11.23Q-233.522-13.97 -232.732-16.1Q-231.932-18.24 -230.522-19.73Q-229.102-21.22 -227.132-22.01Q-225.172-22.8 -222.862-22.8L-222.862-22.8Q-220.702-22.8 -218.882-22.08Q-217.052-21.36 -215.732-20.04Q-214.412-18.72 -213.672-16.92Q-212.932-15.12 -212.932-12.96L-212.932-12.96Q-212.932-11.9 -213.412-11.45Q-213.892-10.99 -214.752-10.9L-214.752-10.9ZM-222.912-19.68L-222.912-19.68Q-225.842-19.68 -227.762-17.64Q-229.682-15.6 -229.772-11.81L-229.772-11.81L-216.572-13.63Q-216.812-16.27 -218.422-17.98Q-220.032-19.68 -222.912-19.68ZM-199.78 0.62L-199.78 0.62Q-203.14 0.62 -205.22-0.86Q-207.31-2.35 -207.31-5.81L-207.31-5.81L-207.31-28.61Q-207.07-28.7 -206.57-28.82Q-206.06-28.94 -205.49-28.94L-205.49-28.94Q-203.47-28.94 -203.47-27.22L-203.47-27.22L-203.47-21.7L-195.6-21.7Q-195.46-21.46 -195.31-21.05Q-195.17-20.64 -195.17-20.16L-195.17-20.16Q-195.17-18.53 -196.61-18.53L-196.61-18.53L-203.47-18.53L-203.47-6.05Q-203.47-4.13 -202.39-3.34Q-201.31-2.54 -199.34-2.54L-199.34-2.54Q-198.53-2.54 -197.52-2.83Q-196.51-3.12 -195.84-3.5L-195.84-3.5Q-195.55-3.22 -195.31-2.78Q-195.07-2.35 -195.07-1.78L-195.07-1.78Q-195.07-0.72 -196.32-0.05Q-197.57 0.62 -199.78 0.62ZM-185.564-0.1L-185.564-0.1Q-185.804 0 -186.284 0.12Q-186.764 0.24 -187.344 0.24L-187.344 0.24Q-189.404 0.24 -189.404-1.49L-189.404-1.49L-189.404-31.1Q-189.164-31.2 -188.664-31.32Q-188.164-31.44 -187.584-31.44L-187.584-31.44Q-185.564-31.44 -185.564-29.71L-185.564-29.71L-185.564-21.07Q-184.414-21.74 -182.854-22.27Q-181.294-22.8 -179.324-22.8L-179.324-22.8Q-177.314-22.8 -175.654-22.27Q-174.004-21.74 -172.804-20.66Q-171.604-19.58 -170.924-17.93Q-170.254-16.27 -170.254-14.06L-170.254-14.06L-170.254-0.1Q-170.494 0 -171.004 0.12Q-171.504 0.24 -172.034 0.24L-172.034 0.24Q-174.094 0.24 -174.094-1.49L-174.094-1.49L-174.094-13.97Q-174.094-16.85 -175.684-18.24Q-177.264-19.63 -179.854-19.63L-179.854-19.63Q-181.534-19.63 -183.004-19.03Q-184.464-18.43 -185.564-17.57L-185.564-17.57L-185.564-0.1ZM-145.536-10.9L-160.316-8.83Q-159.026-2.54 -152.066-2.54L-152.066-2.54Q-150.046-2.54 -148.416-3.22Q-146.786-3.89 -145.826-4.66L-145.826-4.66Q-144.676-3.98 -144.676-2.83L-144.676-2.83Q-144.676-2.16 -145.276-1.54Q-145.876-0.91 -146.906-0.43Q-147.936 0.05 -149.306 0.34Q-150.676 0.62 -152.256 0.62L-152.256 0.62Q-157.826 0.62 -161.066-2.4Q-164.306-5.42 -164.306-11.23L-164.306-11.23Q-164.306-13.97 -163.516-16.1Q-162.716-18.24 -161.306-19.73Q-159.886-21.22 -157.916-22.01Q-155.956-22.8 -153.646-22.8L-153.646-22.8Q-151.486-22.8 -149.666-22.08Q-147.836-21.36 -146.516-20.04Q-145.196-18.72 -144.456-16.92Q-143.716-15.12 -143.716-12.96L-143.716-12.96Q-143.716-11.9 -144.196-11.45Q-144.676-10.99 -145.536-10.9L-145.536-10.9ZM-153.696-19.68L-153.696-19.68Q-156.626-19.68 -158.546-17.64Q-160.466-15.6 -160.556-11.81L-160.556-11.81L-147.356-13.63Q-147.596-16.27 -149.206-17.98Q-150.816-19.68 -153.696-19.68ZM-134.304-18.05L-134.304-0.1Q-134.544 0 -135.024 0.12Q-135.504 0.24 -136.084 0.24L-136.084 0.24Q-138.144 0.24 -138.144-1.49L-138.144-1.49L-138.144-17.76Q-138.144-18.86 -137.734-19.51Q-137.324-20.16 -136.364-20.78L-136.364-20.78Q-135.124-21.6 -132.984-22.2Q-130.844-22.8 -128.164-22.8L-128.164-22.8Q-124.324-22.8 -124.324-20.88L-124.324-20.88Q-124.324-20.4 -124.464-19.99Q-124.604-19.58 -124.844-19.3L-124.844-19.3Q-125.324-19.39 -126.094-19.49Q-126.864-19.58 -127.634-19.58L-127.634-19.58Q-129.844-19.58 -131.524-19.13Q-133.204-18.67 -134.304-18.05L-134.304-18.05ZM-106.318-23.95L-106.318-20.93L-96.818-20.93Q-96.668-20.69 -96.528-20.3Q-96.388-19.92 -96.388-19.39L-96.388-19.39Q-96.388-17.81 -97.868-17.81L-97.868-17.81L-106.268-17.81L-106.268-0.1Q-106.508 0 -106.988 0.12Q-107.468 0.24 -108.048 0.24L-108.048 0.24Q-110.108 0.24 -110.108-1.49L-110.108-1.49L-110.108-24.14Q-110.108-28.37 -107.828-30.26Q-105.548-32.16 -101.468-32.16L-101.468-32.16Q-98.738-32.16 -97.178-31.44Q-95.618-30.72 -95.618-29.66L-95.618-29.66Q-95.618-28.61 -96.428-27.89L-96.428-27.89Q-97.298-28.37 -98.588-28.68Q-99.888-28.99 -101.088-28.99L-101.088-28.99Q-104.018-28.99 -105.168-27.79Q-106.318-26.59 -106.318-23.95L-106.318-23.95ZM-70.466-11.09L-70.466-11.09Q-70.466-8.4 -71.236-6.24Q-71.996-4.08 -73.416-2.54Q-74.836-1.01 -76.846-0.19Q-78.866 0.62 -81.356 0.62L-81.356 0.62Q-83.856 0.62 -85.876-0.19Q-87.886-1.01 -89.326-2.54Q-90.766-4.08 -91.536-6.24Q-92.306-8.4 -92.306-11.09L-92.306-11.09Q-92.306-13.78 -91.516-15.94Q-90.716-18.1 -89.276-19.63Q-87.836-21.17 -85.826-21.98Q-83.806-22.8 -81.356-22.8L-81.356-22.8Q-78.916-22.8 -76.896-21.98Q-74.876-21.17 -73.466-19.63Q-72.046-18.1 -71.256-15.94Q-70.466-13.78 -70.466-11.09ZM-81.356-19.63L-81.356-19.63Q-84.626-19.63 -86.496-17.38Q-88.366-15.12 -88.366-11.09L-88.366-11.09Q-88.366-7.01 -86.516-4.78Q-84.676-2.54 -81.356-2.54L-81.356-2.54Q-78.046-2.54 -76.226-4.8Q-74.396-7.06 -74.396-11.09L-74.396-11.09Q-74.396-15.12 -76.246-17.38Q-78.096-19.63 -81.356-19.63ZM-60.672-18.05L-60.672-0.1Q-60.912 0 -61.392 0.12Q-61.872 0.24 -62.452 0.24L-62.452 0.24Q-64.512 0.24 -64.512-1.49L-64.512-1.49L-64.512-17.76Q-64.512-18.86 -64.102-19.51Q-63.692-20.16 -62.732-20.78L-62.732-20.78Q-61.492-21.6 -59.352-22.2Q-57.212-22.8 -54.532-22.8L-54.532-22.8Q-50.692-22.8 -50.692-20.88L-50.692-20.88Q-50.692-20.4 -50.832-19.99Q-50.972-19.58 -51.212-19.3L-51.212-19.3Q-51.692-19.39 -52.462-19.49Q-53.232-19.58 -54.002-19.58L-54.002-19.58Q-56.212-19.58 -57.892-19.13Q-59.572-18.67 -60.672-18.05L-60.672-18.05ZM-28.656-2.5L-28.656-2.5Q-26.636-2.5 -25.316-2.9Q-23.996-3.31 -23.426-3.7L-23.426-3.7L-23.426-10.66L-29.376-10.03Q-31.876-9.79 -33.076-8.9Q-34.276-8.02 -34.276-6.29L-34.276-6.29Q-34.276-4.46 -32.876-3.48Q-31.486-2.5 -28.656-2.5ZM-28.706-22.8L-28.706-22.8Q-24.526-22.8 -22.076-20.93Q-19.636-19.06 -19.636-15.02L-19.636-15.02L-19.636-3.65Q-19.636-2.59 -20.036-2.04Q-20.446-1.49 -21.266-1.01L-21.266-1.01Q-22.416-0.34 -24.316 0.17Q-26.206 0.67 -28.656 0.67L-28.656 0.67Q-33.166 0.67 -35.636-1.1Q-38.116-2.88 -38.116-6.24L-38.116-6.24Q-38.116-9.41 -36.046-11.02Q-33.986-12.62 -30.236-13.01L-30.236-13.01L-23.426-13.68L-23.426-15.02Q-23.426-17.42 -24.866-18.53Q-26.306-19.63 -28.756-19.63L-28.756-19.63Q-30.766-19.63 -32.546-19.06Q-34.316-18.48 -35.716-17.76L-35.716-17.76Q-36.096-18.1 -36.406-18.53Q-36.716-18.96 -36.716-19.49L-36.716-19.49Q-36.716-20.16 -36.386-20.59Q-36.046-21.02 -35.326-21.41L-35.326-21.41Q-34.036-22.08 -32.356-22.44Q-30.676-22.8 -28.706-22.8ZM 11.806 0.72L 11.806-2.3Q 10.996-1.63  9.576-1.15Q 8.156-0.67  6.196-0.67L 6.196-0.67Q 4.076-0.67  2.206-1.27Q 0.336-1.87 -1.084-3.19Q-2.494-4.51 -3.334-6.62Q-4.174-8.74 -4.174-11.76L-4.174-11.76Q-4.174-14.5 -3.364-16.56Q-2.544-18.62 -1.084-20.02Q 0.386-21.41  2.396-22.1Q 4.416-22.8  6.866-22.8L 6.866-22.8Q 9.076-22.8  10.916-22.25Q 12.766-21.7  14.016-20.88L 14.016-20.88Q 14.736-20.4  15.196-19.8Q 15.646-19.2  15.646-18.34L 15.646-18.34L 15.646 0.96Q 15.646 3.36  14.856 5.02Q 14.066 6.67  12.646 7.7Q 11.236 8.74  9.316 9.22Q 7.396 9.7  5.186 9.7L 5.186 9.7Q 2.736 9.7  1.036 9.19Q-0.674 8.69 -1.294 8.3L-1.294 8.3Q-2.734 7.49 -2.734 6.24L-2.734 6.24Q-2.734 5.57 -2.424 5.11Q-2.114 4.66 -1.634 4.42L-1.634 4.42Q-0.624 5.18  1.196 5.83Q 3.026 6.48  5.186 6.48L 5.186 6.48Q 8.396 6.48  10.106 5.11Q 11.806 3.74  11.806 0.72L 11.806 0.72ZM 6.626-3.84L 6.626-3.84Q 8.546-3.84  9.766-4.44Q 10.996-5.04  11.806-5.81L 11.806-5.81L 11.806-18.29Q 10.996-18.82  9.766-19.22Q 8.546-19.63  6.866-19.63L 6.866-19.63Q 3.596-19.63  1.656-17.66Q-0.284-15.7 -0.284-11.81L-0.284-11.81Q-0.284-9.65  0.236-8.14Q 0.766-6.62  1.706-5.66Q 2.636-4.7  3.916-4.27Q 5.186-3.84  6.626-3.84ZM 26.592-18.05L 26.592-0.1Q 26.352 0  25.872 0.12Q 25.392 0.24  24.812 0.24L 24.812 0.24Q 22.752 0.24  22.752-1.49L 22.752-1.49L 22.752-17.76Q 22.752-18.86  23.162-19.51Q 23.572-20.16  24.532-20.78L 24.532-20.78Q 25.772-21.6  27.912-22.2Q 30.052-22.8  32.732-22.8L 32.732-22.8Q 36.572-22.8  36.572-20.88L 36.572-20.88Q 36.572-20.4  36.432-19.99Q 36.292-19.58  36.052-19.3L 36.052-19.3Q 35.572-19.39  34.802-19.49Q 34.032-19.58  33.262-19.58L 33.262-19.58Q 31.052-19.58  29.372-19.13Q 27.692-18.67  26.592-18.05L 26.592-18.05ZM 58.608-10.9L 43.828-8.83Q 45.118-2.54  52.078-2.54L 52.078-2.54Q 54.098-2.54  55.728-3.22Q 57.358-3.89  58.318-4.66L 58.318-4.66Q 59.468-3.98  59.468-2.83L 59.468-2.83Q 59.468-2.16  58.868-1.54Q 58.268-0.91  57.238-0.43Q 56.208 0.05  54.838 0.34Q 53.468 0.62  51.888 0.62L 51.888 0.62Q 46.318 0.62  43.078-2.4Q 39.838-5.42  39.838-11.23L 39.838-11.23Q 39.838-13.97  40.628-16.1Q 41.428-18.24  42.838-19.73Q 44.258-21.22  46.228-22.01Q 48.188-22.8  50.498-22.8L 50.498-22.8Q 52.658-22.8  54.478-22.08Q 56.308-21.36  57.628-20.04Q 58.948-18.72  59.688-16.92Q 60.428-15.12  60.428-12.96L 60.428-12.96Q 60.428-11.9  59.948-11.45Q 59.468-10.99  58.608-10.9L 58.608-10.9ZM 50.448-19.68L 50.448-19.68Q 47.518-19.68  45.598-17.64Q 43.678-15.6  43.588-11.81L 43.588-11.81L 56.788-13.63Q 56.548-16.27  54.938-17.98Q 53.328-19.68  50.448-19.68ZM 83.52-10.9L 68.74-8.83Q 70.03-2.54  76.99-2.54L 76.99-2.54Q 79.01-2.54  80.64-3.22Q 82.27-3.89  83.23-4.66L 83.23-4.66Q 84.38-3.98  84.38-2.83L 84.38-2.83Q 84.38-2.16  83.78-1.54Q 83.18-0.91  82.15-0.43Q 81.12 0.05  79.75 0.34Q 78.38 0.62  76.8 0.62L 76.8 0.62Q 71.23 0.62  67.99-2.4Q 64.75-5.42  64.75-11.23L 64.75-11.23Q 64.75-13.97  65.54-16.1Q 66.34-18.24  67.75-19.73Q 69.17-21.22  71.14-22.01Q 73.1-22.8  75.41-22.8L 75.41-22.8Q 77.57-22.8  79.39-22.08Q 81.22-21.36  82.54-20.04Q 83.86-18.72  84.6-16.92Q 85.34-15.12  85.34-12.96L 85.34-12.96Q 85.34-11.9  84.86-11.45Q 84.38-10.99  83.52-10.9L 83.52-10.9ZM 75.36-19.68L 75.36-19.68Q 72.43-19.68  70.51-17.64Q 68.59-15.6  68.5-11.81L 68.5-11.81L 81.7-13.63Q 81.46-16.27  79.85-17.98Q 78.24-19.68  75.36-19.68ZM 106.272-14.45L 106.272-14.45Q 106.272-17.14  104.762-18.38Q 103.252-19.63  100.702-19.63L 100.702-19.63Q 98.782-19.63  97.292-19.15Q 95.812-18.67  94.752-18.05L 94.752-18.05L 94.752-0.1Q 94.512 0  94.032 0.12Q 93.552 0.24  92.972 0.24L 92.972 0.24Q 90.912 0.24  90.912-1.49L 90.912-1.49L 90.912-17.86Q 90.912-18.86  91.322-19.51Q 91.732-20.16  92.732-20.78L 92.732-20.78Q 93.982-21.55  96.052-22.18Q 98.112-22.8  100.702-22.8L 100.702-22.8Q 105.072-22.8  107.592-20.83Q 110.112-18.86  110.112-14.64L 110.112-14.64L 110.112-0.1Q 109.872 0  109.372 0.12Q 108.862 0.24  108.332 0.24L 108.332 0.24Q 106.272 0.24  106.272-1.49L 106.272-1.49L 106.272-14.45ZM 144.432-10.9L 129.652-8.83Q 130.942-2.54  137.902-2.54L 137.902-2.54Q 139.922-2.54  141.552-3.22Q 143.182-3.89  144.142-4.66L 144.142-4.66Q 145.292-3.98  145.292-2.83L 145.292-2.83Q 145.292-2.16  144.692-1.54Q 144.092-0.91  143.062-0.43Q 142.032 0.05  140.662 0.34Q 139.292 0.62  137.712 0.62L 137.712 0.62Q 132.142 0.62  128.902-2.4Q 125.662-5.42  125.662-11.23L 125.662-11.23Q 125.662-13.97  126.452-16.1Q 127.252-18.24  128.662-19.73Q 130.082-21.22  132.052-22.01Q 134.012-22.8  136.322-22.8L 136.322-22.8Q 138.482-22.8  140.302-22.08Q 142.132-21.36  143.452-20.04Q 144.772-18.72  145.512-16.92Q 146.252-15.12  146.252-12.96L 146.252-12.96Q 146.252-11.9  145.772-11.45Q 145.292-10.99  144.432-10.9L 144.432-10.9ZM 136.272-19.68L 136.272-19.68Q 133.342-19.68  131.422-17.64Q 129.502-15.6  129.412-11.81L 129.412-11.81L 142.612-13.63Q 142.372-16.27  140.762-17.98Q 139.152-19.68  136.272-19.68ZM 162.094-19.58L 162.094-19.58Q 160.464-19.58  159.074-19.03Q 157.684-18.48  156.674-17.4Q 155.664-16.32  155.084-14.71Q 154.514-13.1  154.514-11.04L 154.514-11.04Q 154.514-6.91  156.574-4.73Q 158.644-2.54  162.094-2.54L 162.094-2.54Q 164.114-2.54  165.454-3.1Q 166.804-3.65  167.854-4.37L 167.854-4.37Q 168.384-4.08  168.724-3.65Q 169.054-3.22  169.054-2.59L 169.054-2.59Q 169.054-1.92  168.524-1.34Q 168.004-0.77  167.064-0.34Q 166.124 0.1  164.854 0.36Q 163.584 0.62  162.094 0.62L 162.094 0.62Q 159.604 0.62  157.484-0.1Q 155.374-0.82  153.844-2.26Q 152.304-3.7  151.444-5.88Q 150.574-8.06  150.574-11.04L 150.574-11.04Q 150.574-13.97  151.484-16.15Q 152.404-18.34  153.934-19.82Q 155.474-21.31  157.564-22.06Q 159.644-22.8  162.004-22.8L 162.004-22.8Q 163.484-22.8  164.764-22.54Q 166.034-22.27  166.944-21.79Q 167.854-21.31  168.364-20.71Q 168.864-20.11  168.864-19.49L 168.864-19.49Q 168.864-18.91  168.524-18.48Q 168.194-18.05  167.664-17.81L 167.664-17.81Q 166.604-18.53  165.364-19.06Q 164.114-19.58  162.094-19.58ZM 195.358-11.09L 195.358-11.09Q 195.358-8.4  194.588-6.24Q 193.828-4.08  192.408-2.54Q 190.988-1.01  188.978-0.19Q 186.958 0.62  184.468 0.62L 184.468 0.62Q 181.968 0.62  179.948-0.19Q 177.938-1.01  176.498-2.54Q 175.058-4.08  174.288-6.24Q 173.518-8.4  173.518-11.09L 173.518-11.09Q 173.518-13.78  174.308-15.94Q 175.108-18.1  176.548-19.63Q 177.988-21.17  179.998-21.98Q 182.018-22.8  184.468-22.8L 184.468-22.8Q 186.908-22.8  188.928-21.98Q 190.948-21.17  192.358-19.63Q 193.778-18.1  194.568-15.94Q 195.358-13.78  195.358-11.09ZM 184.468-19.63L 184.468-19.63Q 181.198-19.63  179.328-17.38Q 177.458-15.12  177.458-11.09L 177.458-11.09Q 177.458-7.01  179.308-4.78Q 181.148-2.54  184.468-2.54L 184.468-2.54Q 187.778-2.54  189.598-4.8Q 191.428-7.06  191.428-11.09L 191.428-11.09Q 191.428-15.12  189.578-17.38Q 187.728-19.63  184.468-19.63ZM 216.672-14.45L 216.672-14.45Q 216.672-17.14  215.162-18.38Q 213.652-19.63  211.102-19.63L 211.102-19.63Q 209.182-19.63  207.692-19.15Q 206.212-18.67  205.152-18.05L 205.152-18.05L 205.152-0.1Q 204.912 0  204.432 0.12Q 203.952 0.24  203.372 0.24L 203.372 0.24Q 201.312 0.24  201.312-1.49L 201.312-1.49L 201.312-17.86Q 201.312-18.86  201.722-19.51Q 202.132-20.16  203.132-20.78L 203.132-20.78Q 204.382-21.55  206.452-22.18Q 208.512-22.8  211.102-22.8L 211.102-22.8Q 215.472-22.8  217.992-20.83Q 220.512-18.86  220.512-14.64L 220.512-14.64L 220.512-0.1Q 220.272 0  219.772 0.12Q 219.262 0.24  218.732 0.24L 218.732 0.24Q 216.672 0.24  216.672-1.49L 216.672-1.49L 216.672-14.45ZM 248.302-11.09L 248.302-11.09Q 248.302-8.4  247.532-6.24Q 246.772-4.08  245.352-2.54Q 243.932-1.01  241.922-0.19Q 239.902 0.62  237.412 0.62L 237.412 0.62Q 234.912 0.62  232.892-0.19Q 230.882-1.01  229.442-2.54Q 228.002-4.08  227.232-6.24Q 226.462-8.4  226.462-11.09L 226.462-11.09Q 226.462-13.78  227.252-15.94Q 228.052-18.1  229.492-19.63Q 230.932-21.17  232.942-21.98Q 234.962-22.8  237.412-22.8L 237.412-22.8Q 239.852-22.8  241.872-21.98Q 243.892-21.17  245.302-19.63Q 246.722-18.1  247.512-15.94Q 248.302-13.78  248.302-11.09ZM 237.412-19.63L 237.412-19.63Q 234.142-19.63  232.272-17.38Q 230.402-15.12  230.402-11.09L 230.402-11.09Q 230.402-7.01  232.252-4.78Q 234.092-2.54  237.412-2.54L 237.412-2.54Q 240.722-2.54  242.542-4.8Q 244.372-7.06  244.372-11.09L 244.372-11.09Q 244.372-15.12  242.522-17.38Q 240.672-19.63  237.412-19.63ZM 282.386-15.07L 282.386-15.07Q 282.386-17.42  281.036-18.53Q 279.696-19.63  277.436-19.63L 277.436-19.63Q 274.316-19.63  271.876-17.42L 271.876-17.42Q 272.156-16.46  272.156-15.36L 272.156-15.36L 272.156-0.1Q 271.916 0  271.416 0.12Q 270.916 0.24  270.386 0.24L 270.386 0.24Q 268.316 0.24  268.316-1.49L 268.316-1.49L 268.316-15.07Q 268.316-17.42  266.976-18.53Q 265.636-19.63  263.326-19.63L 263.326-19.63Q 261.796-19.63  260.426-19.15Q 259.056-18.67  258.096-18.05L 258.096-18.05L 258.096-0.1Q 257.856 0  257.376 0.12Q 256.896 0.24  256.316 0.24L 256.316 0.24Q 254.256 0.24  254.256-1.49L 254.256-1.49L 254.256-17.86Q 254.256-18.82  254.666-19.46Q 255.076-20.11  256.076-20.78L 256.076-20.78Q 257.376-21.6  259.366-22.2Q 261.356-22.8  263.376-22.8L 263.376-22.8Q 265.726-22.8  267.556-22.1Q 269.376-21.41  270.336-20.21L 270.336-20.21Q 271.586-21.31  273.456-22.06Q 275.326-22.8  277.726-22.8L 277.726-22.8Q 281.616-22.8  283.916-20.95Q 286.226-19.1  286.226-15.26L 286.226-15.26L 286.226-0.1Q 285.986 0  285.476 0.12Q 284.976 0.24  284.446 0.24L 284.446 0.24Q 282.386 0.24  282.386-1.49L 282.386-1.49L 282.386-15.07ZM 297.934-4.94L 297.934-4.94Q 297.314-6.1  296.494-7.87Q 295.684-9.65  294.794-11.86Q 293.904-14.06  292.994-16.54Q 292.084-19.01  291.264-21.55L 291.264-21.55Q 291.604-22.03  292.154-22.32Q 292.704-22.61  293.324-22.61L 293.324-22.61Q 294.144-22.61  294.644-22.18Q 295.154-21.74  295.534-20.74L 295.534-20.74Q 296.974-16.66  298.534-12.72Q 300.094-8.78  302.064-4.46L 302.064-4.46L 302.254-4.46Q 303.024-5.95  303.844-8.09Q 304.654-10.22  305.444-12.62Q 306.244-15.02  306.934-17.5Q 307.634-19.97  308.164-22.22L 308.164-22.22Q 308.494-22.37  308.884-22.49Q 309.264-22.61  309.794-22.61L 309.794-22.61Q 310.604-22.61  311.134-22.2Q 311.664-21.79  311.664-20.98L 311.664-20.98Q 311.664-20.02  310.994-17.47Q 310.324-14.93  309.244-11.76Q 308.164-8.59  306.764-5.26Q 305.374-1.92  303.934 0.67L 303.934 0.67Q 301.684 4.75  299.884 6.94Q 298.084 9.12  296.544 9.12L 296.544 9.12Q 295.444 9.12  294.844 8.54Q 294.244 7.97  294.094 7.2L 294.094 7.2Q 294.864 6.53  295.824 5.47Q 296.784 4.42  297.744 3.19Q 298.704 1.97  299.564 0.67Q 300.434-0.62  301.004-1.82L 301.004-1.82Q 300.194-2.06  299.494-2.66Q 298.804-3.26  297.934-4.94Z">
  </path>
</svg>